<svg xmlns="http://www.w3.org/2000/svg" viewBox="0 0 102.76 100.8">
    <defs>
        <style>.cls-1{fill:#fff;font-size:48px;font-family:Gemsbuck01-Bold, "Gemsbuck 01";font-weight:700;letter-spacing:0.02em;}.cls-2{letter-spacing:0.02em;}.cls-3,.cls-4{fill:none;}.cls-4{stroke:#fff;stroke-miterlimit:10;stroke-width:3px;}</style>
    </defs>
    <g id="Layer_2" data-name="Layer 2">
        <g id="Layer_1-2" data-name="Layer 1">
            <g id="mark">
                <g id="mark-2" data-name="mark">
                    <text class="cls-1" transform="translate(14.09 86.01)">K<tspan class="cls-2" x="39.41" y="0">F</tspan>
                    </text>
                    <polygon class="cls-3" points="52.3 21.38 52.3 18.05 49.42 16.38 46.53 18.05 46.53 21.38 49.42 23.05 52.3 21.38"/>
                    <rect class="cls-3" x="28.79" y="36.48" width="2.07" height="1.44"/>
                    <path d="M25.9,33.86l2.89,1.67v.95h2.07v-.95l2.89-1.67,2.88,1.67v.95h5.31a8,8,0,0,1-.62-3.1,8.1,8.1,0,1,1,15.58,3.1h5.3v-.95l2.89-1.67L68,35.53v.95h2.07v-.95l2.88-1.67,2.89,1.67v.95h4.34a25.76,25.76,0,0,0,2.29-9.6.93.93,0,0,0-1.63-.64c-3,3.52-7.36,5.88-8.56,3.89-.82-1.38-.89-6-.81-9.67a.67.67,0,0,0-1.29-.28,26.73,26.73,0,0,1-5.19,8s-1.67,3.35-8.37-7S52.54,8.37,52.54,8.37s-1.81-1.92-3.12-1.92S46.3,8.37,46.3,8.37s2.63,2.39-4.06,12.79-8.37,7.05-8.37,7.05a26.73,26.73,0,0,1-5.19-8,.67.67,0,0,0-1.29.28c.08,3.67,0,8.29-.82,9.67-1.19,2-5.54-.37-8.55-3.89a.93.93,0,0,0-1.63.64,25.56,25.56,0,0,0,2.29,9.6H23v-.95ZM46.53,18.05l2.89-1.67,2.89,1.67v3.33l-2.89,1.67-2.89-1.67Z"/>
                    <path d="M72.93,40.53l-2.88-1.67v-.93H68v.93l-2.89,1.67L62.2,38.86v-.93H56.12a8.1,8.1,0,0,1-13.4,0H36.63v.93l-2.88,1.67-2.89-1.67v-.93H28.79v.93L25.9,40.53,23,38.86v-.93H19v5.2H79.86v-5.2h-4v.93Z"/>
                    <path d="M29.89,16.38a2.54,2.54,0,0,1-2.24,2.76,2.54,2.54,0,0,1-2.23-2.76,2.54,2.54,0,0,1,2.23-2.76A2.54,2.54,0,0,1,29.89,16.38Z"/>
                    <path d="M19,22.48a2.54,2.54,0,0,1-2.23,2.76,2.54,2.54,0,0,1-2.24-2.76,2.55,2.55,0,0,1,2.24-2.77A2.55,2.55,0,0,1,19,22.48Z"/>
                    <path d="M69,16.38a2.28,2.28,0,1,0,4.47,0,2.28,2.28,0,1,0-4.47,0Z"/>
                    <path d="M79.79,22.48a2.28,2.28,0,1,0,4.47,0,2.29,2.29,0,1,0-4.47,0Z"/>
                    <polygon points="23.66 35.89 23.66 38.52 25.94 39.84 28.22 38.52 28.22 35.89 25.94 34.57 23.66 35.89"/>
                    <polygon points="31.51 35.89 31.51 38.52 33.79 39.84 36.07 38.52 36.07 35.89 33.79 34.57 31.51 35.89"/>
                    <polygon points="62.82 35.89 62.82 38.52 65.1 39.84 67.38 38.52 67.38 35.89 65.1 34.57 62.82 35.89"/>
                    <polygon points="70.68 35.89 70.68 38.52 72.96 39.84 75.24 38.52 75.24 35.89 72.96 34.57 70.68 35.89"/>
                    <rect x="19.04" y="44.44" width="60.81" height="1.84"/>
                </g>
                <rect class="cls-4" x="1.5" y="1.5" width="99.76" height="94" rx="4.44"/>
            </g>
        </g>
    </g>
</svg>